<?xml version="1.0" encoding="UTF-8"?>
<!-- Generator: visioncortex VTracer 0.6.3 -->
<svg version="1.1" xmlns="http://www.w3.org/2000/svg" width="1280" height="1280">
<path d="M0 0 C422.4 0 844.8 0 1280 0 C1280 422.4 1280 844.8 1280 1280 C857.6 1280 435.2 1280 0 1280 C0 857.6 0 435.2 0 0 Z " fill="#000002" transform="translate(0,0)"/>
<path d="M0 0 C0.93 -0 1.86 -0 2.81 -0 C3.83 -0 4.86 0 5.91 0.01 C7.52 0.01 7.52 0.01 9.16 0.01 C12.72 0.01 16.28 0.01 19.84 0.02 C22.3 0.02 24.77 0.03 27.23 0.03 C33.73 0.03 40.22 0.04 46.71 0.05 C53.33 0.06 59.96 0.07 66.58 0.07 C79.58 0.08 92.58 0.1 105.58 0.12 C107.57 7.67 109.23 15.18 110.46 22.88 C110.8 24.96 111.14 27.04 111.49 29.12 C111.66 30.2 111.84 31.29 112.03 32.41 C126.16 118.46 145.03 203.8 167.74 287.98 C168.61 291.23 169.48 294.48 170.35 297.73 C173.93 311.11 177.6 324.45 181.46 337.75 C181.73 338.67 181.99 339.59 182.27 340.54 C192.9 377.25 203.79 413.9 216.19 450.05 C217.36 453.45 218.51 456.86 219.66 460.26 C231.78 496.23 244.6 531.99 258.35 567.37 C260.07 571.79 261.77 576.21 263.45 580.64 C270.72 599.72 278.49 618.58 286.36 637.41 C288.78 643.2 291.19 648.99 293.58 654.79 C301.36 673.59 309.33 692.28 317.8 710.78 C318.17 711.59 318.54 712.4 318.92 713.23 C319.24 713.94 319.56 714.64 319.9 715.37 C320.58 717.12 320.58 717.12 320.58 719.12 C321.57 719.45 322.56 719.78 323.58 720.12 C332.31 701.29 340.47 682.22 348.58 663.12 C349 662.14 349.41 661.17 349.84 660.16 C351.75 655.66 353.65 651.16 355.53 646.65 C356.31 644.79 357.08 642.92 357.86 641.06 C363.87 626.7 369.75 612.29 375.46 597.81 C375.72 597.14 375.99 596.47 376.26 595.77 C379.85 586.65 383.35 577.5 386.77 568.31 C387.63 566 388.49 563.68 389.36 561.37 C405.77 517.42 421.56 473.29 435.8 428.58 C436.56 426.19 437.33 423.79 438.1 421.4 C467.24 331.05 491.21 238.97 534.31 20.09 C534.54 18.77 534.54 18.77 534.77 17.42 C535.04 15.8 535.31 14.19 535.58 12.57 C536.47 7.34 536.47 7.34 537.58 5.12 C604.9 5.12 672.22 5.12 741.58 5.12 C741.91 3.8 742.24 2.48 742.58 1.12 C744.93 -0.05 746.33 -0.01 748.94 -0.03 C749.86 -0.03 750.77 -0.04 751.72 -0.05 C752.72 -0.05 753.73 -0.05 754.77 -0.06 C755.83 -0.06 756.89 -0.07 757.98 -0.08 C761.49 -0.1 765 -0.11 768.52 -0.12 C769.71 -0.12 770.91 -0.13 772.14 -0.13 C778.48 -0.15 784.81 -0.17 791.14 -0.17 C797.69 -0.19 804.25 -0.22 810.81 -0.26 C815.83 -0.29 820.86 -0.29 825.89 -0.3 C828.31 -0.3 830.72 -0.31 833.14 -0.33 C836.52 -0.36 839.89 -0.36 843.27 -0.35 C844.78 -0.37 844.78 -0.37 846.32 -0.39 C847.23 -0.38 848.15 -0.37 849.1 -0.37 C849.9 -0.37 850.69 -0.37 851.52 -0.37 C854.34 0.3 854.92 1.83 856.58 4.12 C859.36 4.53 861.8 4.73 864.58 4.75 C872.22 4.88 872.22 4.88 875.58 7.12 C874.76 7.85 874.76 7.85 873.92 8.6 C868.41 13.53 862.95 18.52 857.52 23.56 C856.85 24.17 856.19 24.79 855.5 25.42 C854.88 26 854.25 26.58 853.61 27.18 C853.05 27.7 852.49 28.22 851.92 28.75 C850.47 30.1 850.47 30.1 849.58 32.12 C848.83 32.57 848.07 33.02 847.29 33.48 C844.48 35.18 842.54 37 840.27 39.37 C836.81 42.92 833.24 46.22 829.48 49.44 C827.6 51.1 825.84 52.83 824.08 54.62 C821.14 57.61 818.05 60.37 814.88 63.11 C807.55 69.52 800.49 76.16 793.65 83.09 C791.15 85.55 788.53 87.83 785.87 90.12 C782.93 92.69 780.07 95.34 777.21 98 C772.42 102.44 767.59 106.84 762.7 111.18 C760.56 113.05 760.56 113.05 758.88 115.2 C755.77 117.8 753.8 117.66 749.78 117.73 C749.1 117.74 748.41 117.76 747.71 117.78 C745.41 117.83 743.12 117.85 740.82 117.87 C739.18 117.89 737.53 117.92 735.89 117.95 C730.45 118.04 725.02 118.09 719.58 118.12 C718.17 118.13 718.17 118.13 716.73 118.14 C702.77 118.23 688.82 118.22 674.86 118.19 C669.61 118.18 664.37 118.17 659.12 118.17 C648.94 118.16 638.76 118.14 628.58 118.12 C628.46 118.96 628.33 119.81 628.2 120.68 C627.26 126.92 626.26 133.11 624.92 139.29 C624.77 140 624.61 140.71 624.46 141.44 C623.96 143.73 623.46 146.02 622.96 148.31 C622.78 149.11 622.61 149.9 622.43 150.73 C618.83 167.27 614.99 183.75 611.04 200.21 C610.34 203.14 609.64 206.07 608.95 209 C607.36 215.64 605.75 222.27 604.13 228.89 C603.54 231.3 602.95 233.71 602.37 236.12 C594.39 268.87 585.6 301.37 576.5 333.82 C575.6 337.07 574.69 340.33 573.8 343.58 C569.91 357.6 565.8 371.53 561.52 385.43 C560.88 387.53 560.23 389.63 559.59 391.73 C554.45 408.45 549.17 425.13 543.8 441.79 C543.52 442.67 543.23 443.56 542.94 444.48 C542.41 446.13 541.87 447.78 541.33 449.44 C540.04 453.2 540.04 453.2 539.58 457.12 C540.62 457.12 541.66 457.12 542.73 457.12 C567.97 457.1 593.22 457.08 618.47 457.07 C630.68 457.06 642.89 457.06 655.1 457.04 C665.74 457.03 676.39 457.03 687.03 457.03 C692.66 457.02 698.3 457.02 703.93 457.01 C709.24 457.01 714.55 457.01 719.85 457.01 C721.8 457.01 723.74 457 725.68 457 C750.25 456.95 750.25 456.95 754.58 459.12 C754.58 461.12 754.58 461.12 753.22 462.5 C752.58 463.03 751.93 463.57 751.27 464.12 C747.71 467.16 744.19 470.23 740.71 473.37 C739.78 474.2 738.86 475.03 737.9 475.89 C735.45 478.09 735.45 478.09 733.58 481.12 C731.92 482.12 730.25 483.12 728.58 484.12 C727.1 485.49 725.67 486.91 724.27 488.37 C721.48 491.23 718.68 493.97 715.65 496.56 C712.47 499.28 709.52 502.15 706.58 505.12 C703.09 508.65 699.52 512 695.75 515.24 C687.51 522.39 679.62 529.95 671.67 537.41 C651.12 556.71 651.12 556.71 645.46 561.38 C643.53 563.05 643.53 563.05 642.14 565.15 C639.16 569.06 636.77 570.88 631.89 571.86 C626.83 572.27 621.77 572.17 616.71 572.12 C614.7 572.13 612.7 572.14 610.69 572.15 C605.25 572.18 599.81 572.17 594.37 572.14 C585.41 572.11 576.44 572.13 567.47 572.15 C544.17 572.19 520.88 572.17 497.58 572.12 C497.43 572.9 497.29 573.67 497.13 574.47 C496.15 579.21 494.35 583.7 492.71 588.25 C492.31 589.35 491.91 590.46 491.5 591.6 C488.22 600.58 484.67 609.43 481.02 618.26 C477.4 627.04 473.95 635.87 470.54 644.74 C465.1 658.87 459.38 672.84 453.34 686.73 C450.68 692.85 448.15 699 445.65 705.18 C443.18 711.26 440.66 717.29 437.88 723.24 C436.07 727.25 434.4 731.31 432.71 735.37 C430.12 741.56 427.45 747.67 424.57 753.73 C421.39 760.46 418.37 767.26 415.33 774.06 C409.5 787.12 403.58 800.13 397.58 813.12 C397.24 813.86 396.9 814.61 396.55 815.38 C393.44 822.12 390.26 828.81 386.9 835.43 C384.98 839.22 383.19 842.96 381.71 846.93 C379.98 851.43 377.8 855.58 375.52 859.81 C372.04 866.27 368.78 872.8 365.65 879.43 C360.58 890.15 355.32 900.77 350.02 911.37 C349.62 912.18 349.21 912.99 348.8 913.82 C347.64 916.14 346.49 918.45 345.33 920.76 C344.98 921.46 344.63 922.16 344.27 922.88 C342.83 925.75 341.37 928.45 339.58 931.12 C339.58 932.44 339.58 933.76 339.58 935.12 C341.08 935.12 341.08 935.12 342.6 935.11 C366.84 935.07 391.08 935.04 415.31 935.02 C427.03 935.01 438.75 934.99 450.47 934.97 C460.68 934.95 470.9 934.94 481.11 934.93 C486.52 934.93 491.93 934.92 497.34 934.91 C502.43 934.9 507.51 934.89 512.6 934.89 C514.47 934.89 516.34 934.89 518.22 934.88 C520.76 934.87 523.31 934.87 525.86 934.88 C526.98 934.87 526.98 934.87 528.12 934.86 C531.83 934.88 533.41 935 536.58 937.12 C536.12 937.52 535.66 937.92 535.19 938.34 C530.42 942.49 525.72 946.69 521.03 950.93 C518.86 952.87 516.67 954.78 514.46 956.68 C511.72 959.06 509.13 961.54 506.58 964.12 C503.52 967.22 500.35 970.1 497.05 972.94 C492.98 976.54 489.04 980.28 485.08 984 C481.86 987.02 478.63 990 475.27 992.87 C472.28 995.44 469.53 998.18 466.77 1001 C463.38 1004.43 459.92 1007.55 456.15 1010.56 C451.12 1014.57 446.64 1018.96 442.15 1023.55 C439.35 1026.35 436.42 1028.94 433.41 1031.51 C430.95 1033.68 428.68 1036.01 426.39 1038.35 C423.76 1040.93 420.98 1043.33 418.19 1045.74 C417.29 1046.51 416.41 1047.29 415.58 1048.12 C414.05 1048.23 412.52 1048.27 410.98 1048.28 C409.99 1048.29 408.99 1048.3 407.96 1048.31 C406.85 1048.31 405.74 1048.32 404.6 1048.33 C403.43 1048.34 402.26 1048.35 401.06 1048.36 C397.82 1048.38 394.57 1048.4 391.33 1048.42 C387.86 1048.45 384.38 1048.47 380.91 1048.5 C372.59 1048.56 364.26 1048.62 355.93 1048.67 C353.59 1048.68 351.25 1048.7 348.91 1048.71 C334.64 1048.8 320.36 1048.89 306.09 1048.96 C302.87 1048.98 299.66 1048.99 296.44 1049.01 C295.65 1049.02 294.86 1049.02 294.04 1049.02 C282 1049.09 269.96 1049.18 257.92 1049.28 C246.58 1049.37 235.25 1049.45 223.92 1049.5 C217.74 1049.53 211.56 1049.57 205.39 1049.63 C199.63 1049.69 193.87 1049.72 188.12 1049.73 C186.03 1049.74 183.93 1049.76 181.84 1049.79 C179 1049.82 176.17 1049.83 173.33 1049.82 C172.51 1049.84 171.69 1049.86 170.84 1049.88 C165.43 1049.81 165.43 1049.81 162.99 1047.83 C160.4 1044.8 158.46 1041.38 156.67 1037.84 C156.16 1036.84 155.66 1035.85 155.13 1034.82 C154.6 1033.76 154.07 1032.71 153.52 1031.62 C152.37 1029.37 151.22 1027.13 150.07 1024.88 C149.49 1023.75 148.91 1022.62 148.31 1021.46 C145.7 1016.41 143 1011.42 140.27 1006.43 C139.52 1005.07 139.52 1005.07 138.76 1003.67 C136.01 998.66 133.2 993.69 130.33 988.75 C127.39 983.63 124.68 978.42 122.07 973.13 C118.54 965.98 114.88 958.89 111.21 951.81 C110.72 950.86 110.72 950.86 110.22 949.89 C106.23 942.18 102.21 934.48 98.15 926.81 C92.4 915.93 86.89 904.97 81.71 893.81 C78.92 887.81 75.95 881.95 72.83 876.12 C62.7 857.11 53.84 837.45 44.86 817.89 C41.41 810.4 37.94 802.92 34.36 795.5 C28.58 783.48 23.08 771.36 17.7 759.15 C15.68 754.58 13.64 750.01 11.56 745.46 C2.9 726.4 -5.2 707.11 -13.23 687.77 C-15.67 681.9 -18.13 676.04 -20.61 670.19 C-23.84 662.53 -26.97 654.84 -30.04 647.12 C-30.54 645.86 -31.05 644.6 -31.55 643.34 C-32.34 641.35 -33.13 639.36 -33.93 637.36 C-35.95 632.29 -37.98 627.22 -40.02 622.15 C-55.68 583.16 -55.68 583.16 -62.02 564.88 C-63.73 559.99 -65.53 555.14 -67.37 550.29 C-73.02 535.38 -78.35 520.36 -83.6 505.31 C-83.84 504.64 -84.07 503.98 -84.31 503.3 C-100.07 458.15 -115.31 412.8 -128.49 366.83 C-130.19 360.89 -131.95 354.96 -133.74 349.04 C-137.15 337.71 -140.3 326.32 -143.28 314.87 C-144.83 308.94 -146.43 303.04 -148.14 297.16 C-153.39 279.13 -158.07 261.01 -162.53 242.77 C-163.12 240.39 -163.7 238 -164.29 235.61 C-180.27 170.41 -194.33 104.86 -206.49 38.84 C-206.85 36.89 -207.21 34.93 -207.57 32.98 C-208.24 29.4 -208.89 25.81 -209.54 22.23 C-209.73 21.18 -209.92 20.14 -210.12 19.06 C-210.29 18.09 -210.47 17.13 -210.64 16.13 C-210.79 15.31 -210.95 14.48 -211.1 13.62 C-211.42 11.12 -211.42 11.12 -211.42 5.12 C-174.46 5.12 -137.5 5.12 -99.42 5.12 C-97.66 8.63 -96.98 10.78 -96.35 14.54 C-96.17 15.64 -95.98 16.74 -95.79 17.88 C-95.5 19.67 -95.5 19.67 -95.2 21.51 C-94.88 23.44 -94.55 25.37 -94.23 27.3 C-93.88 29.37 -93.54 31.44 -93.2 33.51 C-91.98 40.84 -90.73 48.16 -89.47 55.48 C-89.34 56.23 -89.22 56.97 -89.08 57.74 C-76.47 131.31 -60.52 204.51 -41.16 276.6 C-39.85 281.46 -38.58 286.32 -37.32 291.19 C-26.89 331.5 -14.99 371.43 -2.42 411.12 C-2.19 411.83 -1.97 412.54 -1.74 413.27 C10.09 450.57 22.26 487.87 36.01 524.5 C38.21 530.38 40.35 536.27 42.42 542.2 C45.47 550.91 48.74 559.52 52.06 568.13 C53.02 570.62 53.97 573.11 54.93 575.59 C58.26 584.25 61.66 592.87 65.24 601.43 C67.03 605.71 68.68 610.02 70.27 614.37 C77.2 633.15 85.29 651.54 93.21 669.92 C96.5 677.57 99.72 685.24 102.9 692.93 C106.25 701.02 109.75 708.98 113.52 716.88 C115.89 721.88 118.2 726.91 120.52 731.93 C121.05 733.07 121.57 734.21 122.11 735.38 C124.97 741.58 127.78 747.8 130.52 754.06 C135.37 765.09 140.69 775.9 145.95 786.74 C147.99 790.95 150 795.17 152.01 799.39 C156.45 808.72 160.97 818.01 165.63 827.23 C166.62 829.19 167.6 831.16 168.57 833.13 C171.79 839.62 175.07 846.06 178.52 852.43 C181.5 857.93 184.21 863.51 186.83 869.18 C191.49 879.2 196.8 888.83 202.15 898.5 C204.32 902.46 206.42 906.44 208.52 910.43 C209.24 911.79 209.96 913.15 210.68 914.51 C211.85 916.72 213 918.92 214.14 921.13 C214.58 921.95 215.01 922.77 215.46 923.62 C215.81 924.29 216.15 924.96 216.51 925.65 C217.61 927.45 217.61 927.45 220.58 928.12 C221.15 927.06 221.15 927.06 221.73 925.98 C225.02 919.85 228.34 913.75 231.71 907.66 C235.61 900.6 239.46 893.53 243.01 886.27 C244.64 883 246.34 879.77 248.05 876.54 C248.91 874.92 249.75 873.3 250.59 871.67 C252.81 867.35 255.13 863.2 257.77 859.12 C262.99 851.07 262.99 851.07 264.36 841.86 C262.83 836.76 260.01 832.37 257.22 827.88 C254.13 822.67 251.62 817.15 249.02 811.68 C248.42 810.45 247.83 809.21 247.23 807.98 C241.81 796.78 236.77 785.43 231.76 774.05 C227.31 763.96 222.74 753.94 218.1 743.94 C210.49 727.56 203.4 711.02 196.55 694.31 C194.06 688.26 191.53 682.21 189 676.18 C188.61 675.25 188.22 674.33 187.82 673.37 C187.43 672.44 187.04 671.52 186.64 670.56 C179.45 653.48 172.31 636.39 165.58 619.12 C165.34 618.49 165.09 617.86 164.84 617.22 C147.28 572.16 130.12 526.92 114.58 481.12 C114.33 480.36 114.07 479.61 113.81 478.83 C110.81 470 107.86 461.15 104.95 452.29 C103.31 447.3 101.65 442.32 99.97 437.35 C91.12 411.01 83.02 384.47 75.21 357.81 C74.98 357.02 74.75 356.24 74.51 355.43 C65.05 323.15 55.86 290.8 47.65 258.18 C47.05 255.83 46.45 253.47 45.86 251.11 C40.31 229.14 34.82 207.16 29.58 185.12 C29.31 183.95 29.31 183.95 29.02 182.76 C17.63 134.7 8.03 86.14 -0.96 37.58 C-1.35 35.44 -1.75 33.31 -2.15 31.18 C-2.88 27.24 -3.6 23.3 -4.32 19.36 C-4.53 18.2 -4.75 17.04 -4.97 15.85 C-5.16 14.78 -5.35 13.71 -5.55 12.61 C-5.72 11.69 -5.89 10.77 -6.06 9.82 C-6.45 6.89 -6.48 4.07 -6.42 1.12 C-4.05 -0.06 -2.64 -0 0 0 Z " fill="#FBFCFE" transform="translate(318.4165344238281,121.87974548339844)"/>
<path d="M0 0 C0.93 -0 1.86 -0 2.81 -0 C3.83 -0 4.86 0 5.91 0.01 C6.98 0.01 8.05 0.01 9.16 0.01 C12.72 0.01 16.28 0.01 19.84 0.02 C22.3 0.02 24.77 0.03 27.23 0.03 C33.73 0.03 40.22 0.04 46.71 0.05 C53.33 0.06 59.96 0.07 66.58 0.07 C79.58 0.08 92.58 0.1 105.58 0.12 C107.57 7.67 109.23 15.18 110.46 22.88 C110.8 24.96 111.14 27.04 111.49 29.12 C111.66 30.2 111.84 31.29 112.03 32.41 C126.16 118.46 145.03 203.8 167.74 287.98 C168.61 291.23 169.48 294.48 170.35 297.73 C173.93 311.11 177.6 324.45 181.46 337.75 C181.73 338.67 181.99 339.59 182.27 340.54 C192.9 377.25 203.79 413.9 216.19 450.05 C217.36 453.45 218.51 456.86 219.66 460.26 C231.78 496.23 244.6 531.99 258.35 567.37 C260.07 571.79 261.77 576.21 263.45 580.64 C270.72 599.72 278.49 618.58 286.36 637.41 C288.78 643.2 291.19 648.99 293.58 654.79 C301.36 673.59 309.33 692.28 317.8 710.78 C318.17 711.59 318.54 712.4 318.92 713.23 C319.24 713.94 319.56 714.64 319.9 715.37 C320.58 717.12 320.58 717.12 320.58 719.12 C321.24 719.12 321.9 719.12 322.58 719.12 C322.98 724.28 321.65 727.98 319.47 732.55 C319.15 733.26 318.82 733.96 318.49 734.69 C317.43 736.99 316.35 739.27 315.27 741.56 C314.53 743.16 313.78 744.76 313.04 746.37 C310.9 750.96 308.75 755.54 306.58 760.12 C306.08 761.19 305.57 762.26 305.05 763.36 C302.95 767.8 300.83 772.23 298.69 776.65 C296.11 782 293.57 787.37 291.04 792.75 C289.78 795.41 288.53 798.06 287.27 800.72 C286.46 802.45 285.64 804.18 284.83 805.91 C279.07 818.16 272.98 830.19 266.58 842.12 C265.59 842.12 264.6 842.12 263.58 842.12 C249.8 814.08 236.71 785.79 224.07 757.22 C221.46 751.32 218.83 745.44 216.15 739.57 C209.18 724.28 202.5 708.92 196.15 693.36 C192.71 684.95 189.17 676.58 185.65 668.21 C178.8 651.91 172 635.6 165.58 619.12 C165.22 618.18 165.22 618.18 164.84 617.22 C147.28 572.16 130.12 526.92 114.58 481.12 C114.33 480.36 114.07 479.61 113.81 478.83 C110.81 470 107.86 461.15 104.95 452.29 C103.31 447.3 101.65 442.32 99.97 437.35 C91.12 411.01 83.02 384.47 75.21 357.81 C74.98 357.02 74.75 356.24 74.51 355.43 C65.05 323.15 55.86 290.8 47.65 258.18 C47.05 255.83 46.45 253.47 45.86 251.11 C40.31 229.14 34.82 207.16 29.58 185.12 C29.4 184.34 29.21 183.56 29.02 182.76 C17.63 134.7 8.03 86.14 -0.96 37.58 C-1.35 35.44 -1.75 33.31 -2.15 31.18 C-2.88 27.24 -3.6 23.3 -4.32 19.36 C-4.64 17.62 -4.64 17.62 -4.97 15.85 C-5.26 14.24 -5.26 14.24 -5.55 12.61 C-5.72 11.69 -5.89 10.77 -6.06 9.82 C-6.45 6.89 -6.48 4.07 -6.42 1.12 C-4.05 -0.06 -2.64 -0 0 0 Z " fill="#AB5BC1" transform="translate(318.4165344238281,121.87974548339844)"/>
<path d="M0 0 C0.66 0.33 1.32 0.66 2 1 C1.4 6.44 0.08 11.22 -1.75 16.37 C-2.17 17.58 -2.17 17.58 -2.6 18.83 C-3.54 21.51 -4.49 24.19 -5.44 26.88 C-6.11 28.77 -6.77 30.67 -7.44 32.57 C-20.71 70.23 -34.58 107.67 -49.48 144.7 C-51.91 150.75 -54.33 156.81 -56.68 162.89 C-62.28 177.36 -68.21 191.65 -74.36 205.9 C-78.5 215.48 -82.54 225.09 -86.5 234.75 C-89.88 242.99 -93.35 251.13 -97.2 259.16 C-99.55 264.1 -101.69 269.12 -103.88 274.12 C-113.53 296.2 -123.59 318.1 -134.07 339.79 C-136.32 344.46 -138.53 349.14 -140.68 353.86 C-150.94 376.37 -162.12 398.42 -173.24 420.51 C-175.25 424.5 -177.25 428.49 -179.24 432.49 C-183.71 441.47 -188.28 450.4 -192.88 459.31 C-193.27 460.08 -193.67 460.85 -194.07 461.64 C-199.53 472.25 -205.01 482.85 -210.61 493.38 C-211.98 495.96 -213.34 498.54 -214.71 501.13 C-222.34 515.56 -230.11 529.89 -238.21 544.07 C-241.18 549.29 -244.03 554.56 -246.83 559.87 C-248 562 -248 562 -249 563 C-250.87 563.09 -252.75 563.12 -254.62 563.11 C-255.82 563.11 -257.02 563.11 -258.26 563.11 C-259.57 563.11 -260.88 563.1 -262.22 563.1 C-263.57 563.1 -264.91 563.09 -266.25 563.09 C-269.8 563.09 -273.34 563.08 -276.88 563.07 C-280.5 563.06 -284.11 563.05 -287.72 563.05 C-294.81 563.04 -301.91 563.02 -309 563 C-309 560 -309 560 -307.41 558.3 C-306.64 557.64 -305.86 556.99 -305.06 556.31 C-300.11 552.01 -295.32 547.57 -290.56 543.06 C-282.81 535.74 -275.03 528.45 -266.94 521.5 C-263.82 518.8 -260.9 515.93 -258 513 C-254.51 509.47 -250.94 506.12 -247.18 502.89 C-242.36 498.7 -237.69 494.33 -233 490 C-232.48 489.52 -231.95 489.04 -231.42 488.54 C-226.38 483.91 -221.35 479.26 -216.35 474.6 C-205.14 464.15 -205.14 464.15 -199.45 459.27 C-198.26 458.23 -197.12 457.12 -196 456 C-197.72 454.28 -199.93 454.88 -202.23 454.87 C-203.37 454.88 -203.37 454.88 -204.52 454.88 C-205.32 454.88 -206.12 454.88 -206.94 454.88 C-209.63 454.88 -212.32 454.88 -215.01 454.89 C-216.94 454.89 -218.86 454.89 -220.78 454.89 C-226.01 454.89 -231.24 454.89 -236.48 454.9 C-241.94 454.9 -247.4 454.91 -252.87 454.91 C-263.22 454.91 -273.57 454.92 -283.92 454.93 C-295.7 454.94 -307.49 454.94 -319.27 454.95 C-343.51 454.96 -367.76 454.98 -392 455 C-390.98 447.32 -390.98 447.32 -389.1 443.93 C-388.71 443.21 -388.32 442.49 -387.92 441.75 C-387.49 440.99 -387.06 440.22 -386.62 439.44 C-385.71 437.75 -384.79 436.06 -383.88 434.36 C-383.41 433.48 -382.93 432.61 -382.44 431.7 C-380.05 427.22 -377.77 422.67 -375.5 418.12 C-374.81 416.75 -374.81 416.75 -374.11 415.35 C-370.5 408.08 -367.02 400.75 -363.56 393.41 C-361.14 388.29 -358.59 383.28 -355.88 378.31 C-351.81 370.87 -348.43 363.17 -345.05 355.4 C-340.61 345.22 -336.13 335.07 -331.06 325.19 C-327.3 317.83 -324 310.29 -320.76 302.68 C-318.2 296.68 -315.51 290.75 -312.74 284.85 C-309.7 278.37 -306.72 271.86 -303.77 265.34 C-303.17 264.02 -302.57 262.71 -301.97 261.4 C-298.47 253.73 -295.21 246.05 -292.24 238.15 C-290.54 233.84 -288.57 229.68 -286.6 225.49 C-283.51 218.76 -280.71 211.9 -277.88 205.06 C-277.39 203.89 -277.39 203.89 -276.89 202.7 C-270.45 187.19 -264.17 171.62 -258 156 C-257.52 154.79 -257.04 153.58 -256.55 152.33 C-251.87 140.49 -247.22 128.64 -242.69 116.75 C-242.21 115.49 -242.21 115.49 -241.72 114.21 C-240.2 110.21 -238.71 106.21 -237.25 102.19 C-236.97 101.44 -236.7 100.69 -236.41 99.91 C-235.9 98.51 -235.4 97.11 -234.9 95.71 C-233.22 91.11 -233.22 91.11 -231 90 C-228.37 89.91 -225.76 89.88 -223.13 89.9 C-221.91 89.9 -221.91 89.9 -220.66 89.91 C-218.88 89.91 -217.09 89.92 -215.31 89.92 C-212.44 89.94 -209.56 89.94 -206.69 89.95 C-199.51 89.96 -192.34 89.99 -185.16 90.01 C-182.17 90.02 -179.19 90.03 -176.21 90.04 C-175.22 90.04 -174.23 90.05 -173.22 90.05 C-168.21 90.06 -163.21 90.06 -158.21 90.04 C-157.21 90.03 -156.21 90.03 -155.18 90.03 C-153.17 90.02 -151.15 90.01 -149.14 90 C-142.94 89.98 -136.76 90.05 -130.57 90.2 C-126.48 90.29 -122.39 90.32 -118.29 90.34 C-116.37 90.36 -114.45 90.41 -112.53 90.48 C-100.88 91 -100.88 91 -90.78 85.92 C-87.7 83.02 -84.97 79.9 -82.33 76.6 C-80.64 74.57 -78.77 72.87 -76.75 71.19 C-76.15 70.68 -75.55 70.16 -74.93 69.64 C-73.97 68.83 -73.97 68.83 -73 68 C-67.75 63.37 -62.62 58.68 -57.71 53.68 C-55.23 51.25 -52.6 49.01 -49.97 46.75 C-48.07 45.06 -46.28 43.31 -44.5 41.5 C-41.56 38.51 -38.47 35.75 -35.3 33.01 C-28.26 26.86 -21.43 20.51 -14.87 13.84 C-12.29 11.31 -9.57 8.96 -6.83 6.61 C-4.44 4.51 -2.22 2.29 0 0 Z " fill="#AA5AC0" transform="translate(1049,603)"/>
<path d="M0 0 C0.99 0 1.98 0 3 0 C-3.86 45.77 -14.35 91 -24.37 136.16 C-24.93 138.69 -25.49 141.23 -26.05 143.77 C-42.09 216.92 -61.96 289.45 -84 361 C-84.25 361.8 -84.49 362.61 -84.75 363.43 C-86.4 368.81 -88.07 374.19 -89.75 379.56 C-90.14 380.8 -90.53 382.04 -90.92 383.32 C-95.44 397.61 -100.26 411.78 -105 426 C-171.66 426 -238.32 426 -307 426 C-308.12 422.63 -307.9 421.95 -306.82 418.7 C-306.54 417.82 -306.25 416.94 -305.96 416.03 C-305.63 415.07 -305.31 414.11 -304.98 413.12 C-304.64 412.1 -304.31 411.08 -303.97 410.04 C-303.24 407.82 -302.51 405.6 -301.78 403.38 C-299.8 397.37 -297.85 391.34 -295.9 385.31 C-295.7 384.68 -295.5 384.06 -295.29 383.41 C-283.65 347.36 -273.17 310.94 -263.42 274.33 C-262.21 269.78 -260.98 265.23 -259.75 260.68 C-252.39 233.55 -245.54 206.33 -239 179 C-238.63 177.44 -238.25 175.87 -237.88 174.31 C-234.05 158.34 -230.37 142.34 -226.81 126.31 C-226.64 125.56 -226.48 124.8 -226.3 124.02 C-224.65 116.57 -223.02 109.12 -221.46 101.66 C-221.23 100.57 -221 99.48 -220.76 98.37 C-220.35 96.39 -219.94 94.41 -219.55 92.43 C-219.09 90.27 -218.56 88.13 -218 86 C-214.81 84.41 -211.37 84.88 -207.87 84.9 C-207.02 84.9 -206.18 84.91 -205.31 84.91 C-203.47 84.91 -201.63 84.92 -199.79 84.92 C-196.84 84.94 -193.89 84.94 -190.94 84.95 C-183.58 84.96 -176.22 84.99 -168.87 85.01 C-165.78 85.02 -162.68 85.03 -159.59 85.04 C-158.58 85.04 -157.57 85.05 -156.52 85.05 C-148.49 85.07 -140.46 85.05 -132.44 85.01 C-127.04 84.99 -121.64 85.03 -116.25 85.13 C-113.12 85.17 -109.99 85.18 -106.85 85.18 C-105.44 85.18 -104.02 85.21 -102.61 85.26 C-96.68 85.45 -91.49 85.53 -86.79 81.59 C-83.97 78.92 -81.5 75.97 -79 73 C-77.74 71.82 -76.45 70.67 -75.12 69.56 C-70.96 66 -66.94 62.28 -62.93 58.55 C-59.59 55.45 -56.22 52.4 -52.81 49.38 C-48.5 45.51 -44.43 41.45 -40.36 37.33 C-37.72 34.72 -34.98 32.29 -32.16 29.88 C-21.15 20.32 -10.31 10.31 0 0 Z " fill="#AA5AC0" transform="translate(1165,154)"/>
<path d="M0 0 C0.87 -0 1.73 -0 2.63 -0.01 C5.5 -0.01 8.37 -0.01 11.25 -0 C13.24 -0 15.23 -0.01 17.22 -0.01 C21.39 -0.01 25.57 -0.01 29.74 -0 C35.1 0 40.47 0 45.83 -0 C49.94 -0.01 54.05 -0.01 58.16 -0 C60.14 -0 62.11 -0 64.09 -0.01 C66.85 -0.01 69.61 -0.01 72.37 0 C73.61 -0 73.61 -0 74.87 -0.01 C80.5 0.02 80.5 0.02 81.62 1.13 C81.46 8.39 79.84 15.53 78.32 22.6 C77.97 24.24 77.97 24.24 77.61 25.91 C76.85 29.48 76.08 33.06 75.31 36.63 C75.04 37.87 74.77 39.11 74.5 40.38 C62.5 95.96 48.91 151.31 33.24 205.97 C32.6 208.21 31.96 210.44 31.32 212.68 C19 255.81 5.81 298.57 -8.38 341.13 C-38.41 341.13 -68.44 341.13 -99.38 341.13 C-100.5 337.76 -100.28 337.08 -99.2 333.83 C-98.92 332.95 -98.63 332.07 -98.34 331.16 C-98.01 330.2 -97.69 329.24 -97.36 328.25 C-97.03 327.23 -96.69 326.21 -96.35 325.17 C-95.62 322.95 -94.9 320.73 -94.16 318.51 C-92.18 312.5 -90.23 306.47 -88.28 300.44 C-88.08 299.81 -87.88 299.19 -87.67 298.54 C-76.03 262.49 -65.55 226.07 -55.8 189.46 C-54.59 184.91 -53.36 180.36 -52.13 175.81 C-44.78 148.68 -37.92 121.46 -31.38 94.13 C-31.01 92.57 -30.63 91 -30.26 89.44 C-26.43 73.47 -22.76 57.47 -19.19 41.44 C-18.94 40.31 -18.94 40.31 -18.68 39.15 C-17.03 31.7 -15.4 24.25 -13.84 16.79 C-13.61 15.7 -13.38 14.61 -13.15 13.5 C-12.73 11.52 -12.33 9.54 -11.93 7.56 C-11.48 5.4 -10.94 3.26 -10.38 1.13 C-7.13 -0.49 -3.57 -0.01 0 0 Z " fill="#000002" transform="translate(957.381103515625,238.87060546875)"/>
<path d="M0 0 C0.86 -0 1.71 -0.01 2.59 -0.02 C5.43 -0.03 8.27 -0.04 11.1 -0.04 C13.07 -0.05 15.03 -0.05 17 -0.06 C21.12 -0.07 25.24 -0.08 29.37 -0.08 C34.66 -0.08 39.95 -0.11 45.24 -0.14 C49.3 -0.16 53.36 -0.16 57.42 -0.16 C59.37 -0.17 61.33 -0.17 63.28 -0.19 C66 -0.2 68.73 -0.2 71.45 -0.2 C72.27 -0.2 73.08 -0.21 73.92 -0.22 C76.16 -0.21 76.16 -0.21 79.73 0.16 C80.72 1.65 80.72 1.65 81.73 3.16 C81.07 3.16 80.41 3.16 79.73 3.16 C79.49 4.24 79.25 5.32 79 6.43 C77.58 12.08 75.46 17.43 73.35 22.85 C72.91 23.98 72.47 25.11 72.02 26.28 C67.28 38.44 62.27 50.48 57.24 62.52 C55.77 66.06 54.31 69.6 52.86 73.14 C33.73 119.77 13.09 165.75 -8.82 211.14 C-10.76 215.18 -12.69 219.23 -14.62 223.27 C-18.75 231.95 -22.94 240.59 -27.26 249.17 C-29.16 252.93 -31.04 256.69 -32.93 260.45 C-33.27 261.14 -33.61 261.82 -33.96 262.52 C-36.21 267.03 -38.45 271.54 -40.69 276.05 C-42.27 279.24 -43.86 282.43 -45.45 285.61 C-46.25 287.22 -47.04 288.84 -47.84 290.45 C-52.58 300.02 -57.48 309.47 -62.72 318.78 C-66.96 326.34 -70.9 334.05 -74.79 341.8 C-75.32 342.84 -75.85 343.87 -76.39 344.93 C-77.08 346.3 -77.08 346.3 -77.78 347.7 C-79.34 350.27 -81.07 352.13 -83.27 354.16 C-87.68 348.61 -91.3 342.9 -94.65 336.66 C-95.12 335.79 -95.6 334.91 -96.09 334.01 C-99.29 328.1 -102.33 322.13 -105.28 316.1 C-107.39 311.82 -109.64 307.65 -111.99 303.5 C-113.69 300.49 -115.36 297.46 -117.02 294.43 C-117.86 292.91 -118.71 291.39 -119.56 289.87 C-120.8 287.65 -121.98 285.41 -123.15 283.16 C-123.52 282.5 -123.9 281.85 -124.29 281.17 C-125.81 278.14 -126.51 276.18 -125.74 272.81 C-124.71 270.18 -123.53 267.69 -122.27 265.16 C-121.5 263.42 -120.74 261.68 -119.98 259.93 C-119.16 258.13 -118.34 256.33 -117.52 254.54 C-117.09 253.57 -116.65 252.61 -116.2 251.62 C-113.67 246.09 -111.04 240.63 -108.27 235.22 C-104.53 227.91 -101.26 220.4 -98.04 212.84 C-95.47 206.84 -92.78 200.92 -90.01 195.01 C-86.97 188.53 -83.99 182.02 -81.04 175.5 C-80.44 174.19 -79.85 172.87 -79.25 171.56 C-75.75 163.89 -72.48 156.21 -69.52 148.31 C-67.82 144 -65.84 139.84 -63.88 135.65 C-60.78 128.92 -57.98 122.06 -55.15 115.22 C-54.66 114.05 -54.66 114.05 -54.17 112.86 C-47.72 97.35 -41.45 81.78 -35.27 66.16 C-34.79 64.95 -34.31 63.74 -33.82 62.49 C-29.14 50.65 -24.49 38.8 -19.96 26.91 C-19.64 26.07 -19.32 25.23 -18.99 24.37 C-17.47 20.37 -15.98 16.37 -14.52 12.35 C-14.11 11.22 -14.11 11.22 -13.69 10.07 C-13.18 8.67 -12.67 7.27 -12.17 5.87 C-9.73 -0.83 -6.53 0.01 0 0 Z " fill="#000002" transform="translate(826.2734375,692.8388671875)"/>
<path d="M0 0 C0.92 -0.01 1.83 -0.01 2.77 -0.02 C3.78 -0.02 4.79 -0.03 5.83 -0.03 C6.89 -0.04 7.94 -0.04 9.03 -0.05 C12.55 -0.07 16.06 -0.08 19.58 -0.09 C21.37 -0.1 21.37 -0.1 23.2 -0.1 C29.53 -0.12 35.87 -0.14 42.2 -0.15 C48.75 -0.16 55.31 -0.19 61.86 -0.23 C66.89 -0.26 71.92 -0.27 76.95 -0.27 C79.36 -0.28 81.78 -0.29 84.2 -0.31 C87.58 -0.33 90.95 -0.33 94.33 -0.32 C95.33 -0.34 96.34 -0.35 97.37 -0.36 C98.29 -0.35 99.21 -0.35 100.16 -0.34 C100.95 -0.34 101.75 -0.35 102.58 -0.35 C105.4 0.33 106.15 1.74 107.64 4.15 C104.77 5.11 103.05 5.26 100.07 5.23 C99.13 5.22 98.19 5.22 97.22 5.21 C96.2 5.2 95.17 5.18 94.11 5.17 C93.03 5.16 91.95 5.15 90.83 5.14 C87.24 5.11 83.65 5.07 80.07 5.03 C77.58 5 75.1 4.98 72.61 4.95 C66.74 4.9 60.86 4.84 54.99 4.77 C47.64 4.7 40.3 4.62 32.95 4.55 C19.85 4.42 6.75 4.29 -6.36 4.15 C-6.36 3.16 -6.36 2.17 -6.36 1.15 C-4.01 -0.03 -2.61 0.01 0 0 Z " fill="#AB5BC1" transform="translate(1067.358383178711,121.85282897949219)"/>
</svg>
